# xmcd
#
# Track frame offsets:
# 150
# 15278
# 38399
# 66590
# 94399
# 124796
# 153889
# 179332
#
# Disc length: 2900 seconds
#
# Revision: 1
# Processed by: cddbd v1.5.2PL0 Copyright (c) Steve Scherf et al.
# Submitted via: CedeCatalogueitor 2.6.0.6 http://personales.ya.com/cdcatalogueitor
#
DISCID=5c0b5208
DTITLE=We Have Band - Divisive
DYEAR=1900
DGENRE=
TTITLE0=Divisive
TTITLE1=Divisive
TTITLE2=Divisive
TTITLE3=Divisive
TTITLE4=Divisive
TTITLE5=Divisive
TTITLE6=Divisive
TTITLE7=Divisive
EXTD=
EXTT0=
EXTT1=
EXTT2=
EXTT3=
EXTT4=
EXTT5=
EXTT6=
EXTT7=
PLAYORDER=
